# xmcd CD database file
#
# Track frame offsets:
#	150
#	20367
#	39510
#	61212
#	82940
#	102312
#	119655
#	139442
#	163192
#	185992
#	208000
#	240887
#
# Disc length: 4440 seconds
#
# Revision: 0
# Processed by: cddbd v1.5.1PL2 Copyright (c) Steve Scherf et al.
# Submitted via: CDex 1.51
#
DISCID=a711560c
DTITLE=Vitarise - PANORAMA
DYEAR=2004
DGENRE=DOMESTIC(J-POPS)
TTITLE0=Costa
TTITLE1=クイリナーレの丘
TTITLE2=トラム
TTITLE3=moonlit(album version)
TTITLE4=泡沫〜うたかた〜
TTITLE5=衝動
TTITLE6=瑠璃イロノトキ
TTITLE7=Ruido
TTITLE8=コクハク
TTITLE9=Passion of Love
TTITLE10=トレヴィの泉
TTITLE11=DATA
EXTD=YEAR: 2004
EXTT0=
EXTT1=
EXTT2=
EXTT3=
EXTT4=
EXTT5=
EXTT6=
EXTT7=
EXTT8=
EXTT9=
EXTT10=
EXTT11=
PLAYORDER=
